<?xml version="1.0" encoding="UTF-8"?>
<svg xmlns="http://www.w3.org/2000/svg" xmlns:xlink="http://www.w3.org/1999/xlink" width="3750" height="3750" viewBox="0 0 3750 3750">

<path fill-rule="nonzero" fill="rgb(85.9375%, 46.263123%, 19.993591%)" fill-opacity="1" d="M 812.707031 2655.609375 C 812.707031 2655.609375 625.171875 2635.328125 615.035156 2270.398438 C 604.898438 1905.46875 908.996094 1218.648438 1816.261719 1251.640625 C 2652.558594 1282.050781 2819.820312 1423.960938 2840.089844 1743.28125 C 2860.371094 2062.589844 2368.730469 2620.121094 2150.78125 2655.609375 C 1932.839844 2691.078125 812.707031 2655.609375 812.707031 2655.609375 Z M 812.707031 2655.609375 "/>
<path fill-rule="nonzero" fill="rgb(61.914062%, 26.660156%, 2.745056%)" fill-opacity="1" d="M 2779.25 1519.179688 C 2778.25 1659.300781 2749.699219 1957.628906 2543.589844 2191.839844 C 2264.820312 2508.621094 2181.191406 2478.210938 1937.910156 2483.28125 C 1722.808594 2487.761719 867.214844 2481.011719 648.578125 2479.230469 C 705.160156 2643.621094 812.707031 2655.609375 812.707031 2655.609375 C 812.707031 2655.609375 1932.839844 2691.089844 2150.78125 2655.609375 C 2368.730469 2620.121094 2860.371094 2062.589844 2840.089844 1743.28125 C 2834.53125 1655.640625 2817.75 1581.449219 2779.25 1519.179688 Z M 2779.25 1519.179688 "/>
<path fill-rule="nonzero" fill="rgb(100%, 72.459412%, 54.101562%)" fill-opacity="1" d="M 1732.96875 1250.621094 C 890.300781 1261.261719 605.214844 1916.871094 615.035156 2270.398438 C 616.148438 2310.371094 619.691406 2345.53125 624.582031 2377.660156 C 624.636719 2335.300781 635.289062 1861.179688 1047.328125 1561.519531 C 1480.988281 1246.128906 1893.140625 1324.980469 2172.691406 1353.648438 C 2372.5 1374.140625 2652.25 1501.171875 2796.988281 1551.929688 C 2708.679688 1365.171875 2461.96875 1275.121094 1816.261719 1251.640625 C 1787.910156 1250.609375 1760.148438 1250.28125 1732.96875 1250.621094 Z M 1732.96875 1250.621094 "/>
<path fill-rule="nonzero" fill="rgb(0%, 0%, 0%)" fill-opacity="1" d="M 1774.539062 1220.988281 C 1336.671875 1215.78125 1036.988281 1379.660156 849.40625 1592.191406 C 655.777344 1811.578125 580.105469 2080.019531 585.417969 2271.21875 C 590.625 2458.738281 642.105469 2563.328125 696.191406 2620.261719 C 723.234375 2648.730469 750.585938 2664.980469 771.574219 2673.96875 C 792.5625 2682.960938 809.519531 2685.058594 809.519531 2685.058594 L 810.640625 2685.179688 L 811.765625 2685.21875 C 811.765625 2685.21875 1092 2694.101562 1399.589844 2698.539062 C 1553.378906 2700.761719 1714.019531 2701.871094 1850.128906 2700.199219 C 1986.230469 2698.53125 2096.308594 2694.488281 2155.539062 2684.851562 C 2220.429688 2674.289062 2293.550781 2629.859375 2372 2565.960938 C 2450.449219 2502.070312 2532.871094 2417.789062 2607.871094 2324.441406 C 2757.871094 2137.738281 2880.828125 1917.261719 2869.660156 1741.398438 C 2859.21875 1576.878906 2805.238281 1446.550781 2648.101562 1362.960938 C 2490.96875 1279.378906 2237.089844 1237.289062 1817.339844 1222.03125 C 1802.929688 1221.5 1788.660156 1221.160156 1774.539062 1220.988281 Z M 1733.339844 1280.230469 C 1760.03125 1279.910156 1787.308594 1280.230469 1815.191406 1281.25 C 2231.730469 1296.398438 2479.640625 1340.480469 2620.269531 1415.28125 C 2760.910156 1490.089844 2800.699219 1590.371094 2810.519531 1745.160156 C 2819.628906 1888.609375 2706.910156 2106.558594 2561.671875 2287.320312 C 2489.058594 2377.699219 2408.96875 2459.421875 2334.570312 2520.019531 C 2260.171875 2580.609375 2190.101562 2619.179688 2146.019531 2626.359375 C 2096.28125 2634.460938 1984.609375 2639.28125 1849.398438 2640.941406 C 1714.191406 2642.601562 1553.929688 2641.5 1400.441406 2639.28125 C 1096.179688 2634.890625 820.222656 2626.191406 815.355469 2626.039062 C 814.699219 2625.980469 808.640625 2625.378906 794.917969 2619.5 C 780.425781 2613.289062 760.261719 2601.660156 739.15625 2579.441406 C 696.941406 2535.011719 649.582031 2446.988281 644.65625 2269.578125 C 639.828125 2095.851562 711.140625 1838.410156 893.839844 1631.410156 C 1065.121094 1437.339844 1332.988281 1285.140625 1733.339844 1280.230469 Z M 1733.339844 1280.230469 "/>
<path fill-rule="evenodd" fill="rgb(95.701599%, 95.701599%, 95.701599%)" fill-opacity="1" d="M 521.820312 2574.511719 C 495.148438 2574.511719 473.671875 2595.980469 473.671875 2622.660156 C 473.671875 2684.371094 539.324219 2790.90625 616.796875 2807.660156 L 2764.101562 2807.660156 C 2841.570312 2790.90625 2907.21875 2684.371094 2907.21875 2622.660156 C 2907.21875 2595.980469 2885.75 2574.511719 2859.070312 2574.511719 Z M 521.820312 2574.511719 "/>
<path fill-rule="nonzero" fill="rgb(78.90625%, 78.90625%, 78.90625%)" fill-opacity="1" d="M 2794.21875 2574.511719 C 2781.75 2625.269531 2754.160156 2713.550781 2710.851562 2718.960938 C 2652.261719 2726.28125 661.144531 2721.941406 509.648438 2721.609375 C 536.140625 2762.402344 574.476562 2798.507812 616.796875 2807.660156 L 2764.101562 2807.660156 C 2841.570312 2790.90625 2907.21875 2684.371094 2907.21875 2622.660156 C 2907.21875 2595.980469 2885.75 2574.511719 2859.070312 2574.511719 Z M 2794.21875 2574.511719 "/>
<path fill-rule="evenodd" fill="rgb(0%, 0%, 0%)" fill-opacity="1" d="M 521.820312 2544.878906 C 479.242188 2544.878906 444.039062 2580.078125 444.039062 2622.660156 C 444.039062 2664.019531 463.132812 2708.839844 492.089844 2749.269531 C 521.046875 2789.707031 560.804688 2825.867188 610.535156 2836.621094 L 613.628906 2837.289062 L 2767.269531 2837.289062 L 2770.359375 2836.621094 C 2820.089844 2825.867188 2859.851562 2789.707031 2888.808594 2749.269531 C 2917.761719 2708.839844 2936.859375 2664.019531 2936.859375 2622.660156 C 2936.859375 2580.078125 2901.648438 2544.878906 2859.070312 2544.878906 Z M 521.820312 2604.140625 L 2859.070312 2604.140625 C 2869.839844 2604.140625 2877.589844 2611.890625 2877.589844 2622.660156 C 2877.589844 2643.011719 2863.859375 2682.320312 2840.621094 2714.769531 C 2818.109375 2746.210938 2787.550781 2771.054688 2760.429688 2778.027344 L 620.460938 2778.027344 C 593.34375 2771.054688 562.789062 2746.210938 540.273438 2714.769531 C 517.035156 2682.320312 503.300781 2643.011719 503.300781 2622.660156 C 503.300781 2611.890625 511.050781 2604.140625 521.820312 2604.140625 Z M 521.820312 2604.140625 "/>
<path fill-rule="evenodd" fill="rgb(100%, 100%, 100%)" fill-opacity="1" d="M 2399.578125 1560.929688 C 2419.128906 1579.078125 2449.480469 1577.960938 2467.628906 1558.410156 L 2893.738281 1099.589844 C 2898.769531 1106.410156 2904.421875 1112.761719 2910.628906 1118.53125 C 2936.980469 1143 2971.96875 1156 3007.910156 1154.671875 C 3043.851562 1153.339844 3077.78125 1137.789062 3102.25 1111.441406 C 3126.730469 1085.089844 3139.730469 1050.101562 3138.398438 1014.171875 C 3137.070312 978.230469 3121.519531 944.289062 3095.171875 919.820312 C 3069.511719 896.070312 3035.660156 883.148438 3000.710938 883.761719 C 2998.730469 848.851562 2983.351562 816.058594 2957.769531 792.21875 C 2931.410156 767.75 2896.421875 754.75 2860.488281 756.070312 C 2824.550781 757.398438 2790.609375 772.949219 2766.140625 799.300781 C 2741.671875 825.648438 2728.671875 860.640625 2730 896.578125 C 2731.328125 932.519531 2746.878906 966.449219 2773.230469 990.929688 C 2778.25 995.519531 2783.609375 999.730469 2789.269531 1003.519531 L 2363.640625 1461.839844 C 2345.488281 1481.378906 2346.609375 1511.730469 2366.160156 1529.890625 Z M 2399.578125 1560.929688 "/>
<path fill-rule="evenodd" fill="rgb(0%, 0%, 0%)" fill-opacity="1" d="M 2379.421875 1582.640625 C 2410.621094 1611.609375 2460.371094 1609.78125 2489.339844 1578.578125 L 2893.738281 1143.128906 C 2960.46875 1201.910156 3063.109375 1197.140625 3123.96875 1131.609375 C 3185.820312 1065 3181.941406 959.960938 3115.328125 898.109375 L 3115.320312 898.089844 L 3115.300781 898.078125 C 3090.570312 875.191406 3059.578125 860.589844 3026.628906 855.839844 C 3019.460938 823.339844 3002.621094 793.511719 2977.96875 770.539062 L 2977.929688 770.5 C 2911.320312 708.648438 2806.289062 712.53125 2744.429688 779.140625 C 2684.699219 843.460938 2686.289062 943.601562 2746.441406 1006.101562 L 2341.929688 1441.671875 C 2312.949219 1472.871094 2314.789062 1522.621094 2345.988281 1551.601562 Z M 2419.75 1539.210938 L 2386.320312 1508.171875 C 2378.429688 1500.839844 2378.019531 1489.890625 2385.351562 1482 L 2834.609375 998.25 L 2805.769531 978.910156 C 2801.378906 975.96875 2797.230469 972.710938 2793.328125 969.148438 C 2750.261719 929.078125 2747.820312 862.578125 2787.859375 819.460938 C 2827.910156 776.339844 2894.449219 773.871094 2937.578125 813.910156 C 2957.570312 832.550781 2969.578125 858.148438 2971.121094 885.429688 L 2972.730469 913.878906 L 3001.21875 913.390625 C 3028.539062 912.910156 3054.96875 923 3075.019531 941.550781 C 3118.140625 981.621094 3120.601562 1048.148438 3080.539062 1091.28125 C 3040.480469 1134.410156 2973.941406 1136.878906 2930.800781 1096.820312 C 2925.949219 1092.308594 2921.53125 1087.359375 2917.601562 1082.019531 L 2896.378906 1053.191406 L 2445.921875 1538.25 C 2438.589844 1546.140625 2427.640625 1546.550781 2419.75 1539.210938 Z M 2419.75 1539.210938 "/>
<path fill-rule="evenodd" fill="rgb(85.9375%, 46.263123%, 19.993591%)" fill-opacity="1" d="M 2042.371094 1453.988281 C 2127.441406 1362.390625 2233.679688 1297.429688 2337.71875 1273.398438 C 2441.75 1249.378906 2535.058594 1268.261719 2597.109375 1325.890625 C 2659.160156 1383.519531 2684.878906 1475.179688 2668.609375 1580.699219 C 2652.328125 1686.21875 2595.390625 1796.96875 2510.320312 1888.570312 C 2425.25 1980.179688 2319.011719 2045.140625 2214.980469 2069.160156 C 2110.941406 2093.191406 2017.640625 2074.308594 1955.578125 2016.679688 C 1893.53125 1959.050781 1867.808594 1867.390625 1884.078125 1761.859375 C 1900.359375 1656.339844 1957.300781 1545.589844 2042.371094 1453.988281 Z M 2042.371094 1453.988281 "/>
<path fill-rule="nonzero" fill="rgb(100%, 72.459412%, 54.101562%)" fill-opacity="1" d="M 2636.351562 1385.441406 C 2636.351562 1385.441406 2400.371094 1190.171875 2096.691406 1498.058594 C 1906.128906 1691.238281 1896.730469 1909.160156 1896.730469 1909.160156 C 1896.730469 1909.160156 1868.058594 1672.621094 1966.621094 1531.058594 C 2065.179688 1389.488281 2201.628906 1297.589844 2317.839844 1278.378906 C 2495.878906 1248.96875 2636.351562 1385.441406 2636.351562 1385.441406 Z M 2636.351562 1385.441406 "/>
<path fill-rule="evenodd" fill="rgb(0%, 0%, 0%)" fill-opacity="1" d="M 1935.421875 2038.390625 C 2005.960938 2103.898438 2110.511719 2123.699219 2221.640625 2098.03125 C 2332.78125 2072.371094 2443.339844 2004.238281 2532.039062 1908.738281 C 2620.71875 1813.238281 2680.5 1697.941406 2697.890625 1585.21875 C 2715.28125 1472.488281 2687.820312 1369.691406 2617.269531 1304.179688 C 2546.730469 1238.660156 2442.179688 1218.871094 2331.050781 1244.53125 C 2219.910156 1270.191406 2109.339844 1338.328125 2020.660156 1433.820312 C 1931.96875 1529.320312 1872.191406 1644.621094 1854.800781 1757.351562 C 1837.410156 1870.070312 1864.878906 1972.878906 1935.421875 2038.390625 Z M 1975.738281 1994.960938 C 1922.179688 1945.21875 1898.199219 1864.699219 1913.371094 1766.378906 C 1928.539062 1668.058594 1982.628906 1561.859375 2064.078125 1474.148438 C 2145.539062 1386.441406 2247.449219 1324.660156 2344.378906 1302.269531 C 2441.308594 1279.890625 2523.378906 1297.859375 2576.949219 1347.601562 C 2630.511719 1397.351562 2654.488281 1477.859375 2639.320312 1576.179688 C 2624.160156 1674.5 2570.070312 1780.699219 2488.609375 1868.410156 C 2407.160156 1956.121094 2305.238281 2017.910156 2208.308594 2040.289062 C 2111.378906 2062.679688 2029.308594 2044.710938 1975.738281 1994.960938 Z M 1975.738281 1994.960938 "/>
</svg>
